<?xml version="1.0" standalone="no"?>
<!DOCTYPE svg PUBLIC "-//W3C//DTD SVG 1.1//EN" "http://www.w3.org/Graphics/SVG/1.1/DTD/svg11.dtd" >
<svg xmlns="http://www.w3.org/2000/svg">
<metadata>Generated by IcoMoon</metadata>
<defs>
<font id="duyzuy" horiz-adv-x="1024">
<font-face units-per-em="1024" ascent="960" descent="-64" />
<missing-glyph horiz-adv-x="1024" />
<glyph unicode="&#x20;" horiz-adv-x="512" d="" />
<glyph unicode="&#xe900;" glyph-name="youtube" d="M424.064 624.811c-21.205 12.672-48.384-2.645-48.384-27.477v-298.667c0-24.96 27.221-40.064 48.384-27.52l250.411 149.12c20.821 12.416 20.779 42.539 0.043 54.997zM439.68 354.944v186.027l155.947-93.141zM849.237 820.437c-198.528 29.483-475.861 29.483-674.475 0-79.445-11.776-142.037-74.155-155.691-155.136-25.429-150.315-25.429-284.331 0-434.603 13.653-81.024 76.245-143.36 155.691-155.136 99.499-14.763 218.624-22.144 337.707-22.144 118.869 0 237.696 7.339 336.811 22.101 79.36 11.776 141.909 74.112 155.648 155.136 25.429 150.315 25.429 284.373 0 434.688-13.653 80.939-76.245 143.317-155.691 155.093zM941.824 241.323c-9.088-53.589-50.048-94.805-101.973-102.485-192.768-28.629-462.421-28.629-655.701 0.043-51.968 7.723-92.971 48.896-102.016 102.485-24.491 144.811-24.491 268.416 0 413.312 9.088 53.589 50.048 94.72 102.059 102.485 96.512 14.293 212.181 21.461 327.765 21.461 115.669 0 231.339-7.168 327.851-21.461 51.968-7.723 92.971-48.896 102.016-102.485 24.491-144.896 24.491-268.501 0-413.355z" />
<glyph unicode="&#xe901;" glyph-name="linkedin" d="M265.836-64h-264.734v713.344h264.734zM61.039-4h144.859v593.344h-144.859zM1024-64h-259.359l0.109 315.578c1.086 51.219-19.586 93.469-55.297 113.023-24.523 13.43-52.742 13.469-79.219 0.531l-2.281-429.133h-271.438v713.344h271.594v-28.992c84.383 34.211 173.867 29.273 251.625-15.203 87.641-50.133 144.266-142.82 144.266-236.133zM824.594-4h139.469v373.016c0 72.164-44.773 144.398-114.063 184.039-33.797 19.336-71.813 29.602-109.93 29.703-0.18 0-0.367 0-0.555 0-42.656 0-85.094-12.281-126.156-36.5l-45.18-26.648v69.734h-151.727v-593.344h151.883l2.133 402.469 13.188 8.859c48.555 32.617 106.336 36.32 154.563 9.914 26.609-14.57 48.688-37.375 63.852-65.93 15.516-29.242 23.336-64.047 22.609-100.68zM132.922 693.891c-73.297 0-132.922 59.688-132.922 133.055s59.625 133.055 132.922 133.055c73.289 0 132.914-59.688 132.914-133.055s-59.625-133.055-132.914-133.055zM132.922 900c-40.242 0-72.984-32.773-72.984-73.055 0-40.289 32.734-73.063 72.984-73.063 40.242 0 72.977 32.773 72.977 73.063 0 40.281-32.734 73.055-72.977 73.055z" />
<glyph unicode="&#xe902;" glyph-name="twitter" d="M20.181 123.947c94.805-60.16 205.141-91.947 319.061-91.947 166.827 0 319.701 64.085 430.507 180.437 106.027 111.36 164.352 260.992 161.451 412.843 40.192 34.389 87.467 100.053 87.467 164.053 0 24.533-26.624 40.107-48.213 27.605-37.76-22.187-72.192-27.989-107.605-18.048-72.32 70.485-179.968 85.333-270.677 36.437-79.275-42.667-123.349-120.747-119.381-206.080-133.931 16.341-257.664 83.499-343.936 187.861-14.165 17.024-41.045 15.019-52.309-4.267-41.557-71.168-41.131-153.643-4.992-220.245-17.195-3.029-27.819-17.493-27.819-33.152 0-66.944 30.123-128.469 78.635-170.453-9.045-8.704-12.032-21.632-8.192-33.152 21.333-64.085 69.632-114.176 130.005-139.264-65.664-31.36-138.283-41.813-202.923-33.877-33.451 4.523-49.963-40.448-21.077-58.752zM347.989 205.611c23.936 18.389 11.221 56.704-18.816 57.344-52.907 1.109-101.077 27.179-131.072 68.181 14.464 0.939 29.44 3.157 43.691 6.997 32.469 8.789 30.933 55.637-2.048 62.251-59.861 12.032-106.837 55.637-124.459 111.787 16.085-3.968 32.469-6.187 48.811-6.485 32.384-0.171 44.629 41.344 18.219 58.709-59.52 39.211-84.907 108.459-68.096 173.568 103.936-105.301 244.949-168.747 394.112-175.915 21.376-1.323 37.419 18.773 32.725 39.125-20.267 87.851 28.8 149.419 81.493 177.792 52.139 28.16 135.851 36.949 200.021-30.379 19.072-20.096 83.413-20.864 116.139-13.227-14.677-27.648-37.248-53.888-58.368-68.651-9.003-6.315-14.165-16.811-13.611-27.776 6.869-140.16-45.355-279.509-143.275-382.293-98.645-103.552-235.051-160.597-384.171-160.597-59.307 0-117.461 9.643-172.416 28.245 65.707 12.715 128.128 40.533 181.12 81.323z" />
<glyph unicode="&#xe903;" glyph-name="github" d="M7.851 513.621c-33.237-209.323 59.776-461.781 346.581-554.923 5.12-0.939 9.856-1.365 14.293-1.365 33.365 0 56.32 24.832 56.32 55.467-4.139 22.315 16.341 112.725-39.253 100.565-107.477-22.869-120.363 37.163-136.747 68.565 46.336-59.477 115.968-57.984 168.491-34.944 29.141 12.8 13.909 45.397 27.733 57.301 21.163 18.176 10.411 53.035-17.365 56.064-98.731 10.88-190.165 42.709-190.165 200.619 0 92.501 64.213 100.779 46.507 139.477-0.64 1.408-14.208 32.171-1.92 78.891 60.544-11.179 88.405-54.613 117.461-46.805 71.979 19.627 151.211 19.627 223.147 0 30.037-8.064 51.499 34.176 116.821 47.061 18.816-70.571-20.181-87.808 4.395-114.219 26.965-29.013 40.661-64.128 40.661-104.405 0-237.397-201.259-168.832-217.643-222.72-3.755-12.288 0.213-25.557 10.027-33.792 26.027-21.888 22.613-78.080 19.84-123.264-2.859-46.848-5.333-87.253 20.565-110.037 9.131-8.107 25.387-16.768 54.784-10.795 283.051 90.923 376.747 342.272 344.021 551.125-89.429 570.368-918.443 569.685-1008.555 2.133zM360.704 45.227l0.171-21.547c-22.315 7.723-43.307 16.64-62.933 26.581 18.133-4.651 38.955-6.656 62.763-5.035zM376.491 203.093c-0.213-1.109-0.427-2.261-0.64-3.413-36.395-10.752-64.384-0.043-83.499 32.085 0 0.043 0 0.043-0.043 0.085 29.013-15.531 58.923-23.893 84.181-28.757zM512 874.667c504.875 0 618.752-694.059 148.011-850.816-1.621 12.672-0.128 36.565 0.896 53.419 2.475 40.576 5.376 87.851-9.088 127.36 217.088 45.184 235.221 283.563 151.637 389.76 10.368 40.619 6.187 136.064-31.104 147.755-8.789 2.773-55.68 12.971-146.645-44.245-74.283 17.749-154.453 17.792-228.736 0-45.397 28.459-147.712 74.752-167.339 25.6-22.784-57.259-17.365-103.552-10.581-129.28-74.197-94.037-51.968-251.477 22.784-325.376-42.368 20.267-100.736 27.179-113.323-13.397-13.781-44.245 38.912-38.869 71.637-119.637 3.115-10.069 8.875-21.888 17.707-33.621-290.603 237.44-150.4 772.48 294.144 772.48z" />
<glyph unicode="&#xe904;" d="M750.345 915.862c-98.81-0.009-189.94-53.328-238.345-139.474-48.405 86.147-139.534 139.466-238.345 139.474-151.129 0-273.655-140.181-273.655-291.31 0-379.586 512-644.414 512-644.414s512 264.828 512 644.414c0 151.129-122.526 291.31-273.655 291.31z" />
<glyph unicode="&#xe905;" d="M70.621 624.552c0 139.828 104.94 270.034 240.319 288.767-12.353 1.698-24.81 2.552-37.284 2.543-151.129 0-273.655-140.181-273.655-291.31 0-379.586 512-644.414 512-644.414s13.241 6.871 35.31 19.845c-115.672 68.026-476.69 305.784-476.69 624.569z" />
<glyph unicode="&#xe906;" glyph-name="heart-1" d="M512-7.031c-14.578 0-28.633 5.281-39.586 14.875-41.367 36.172-81.25 70.164-116.438 100.148l-0.18 0.156c-103.164 87.914-192.25 163.836-254.234 238.625-69.289 83.609-101.563 162.883-101.563 249.484 0 84.141 28.852 161.766 81.234 218.586 53.008 57.492 125.742 89.156 204.828 89.156 59.109 0 113.242-18.688 160.891-55.539 24.047-18.602 45.844-41.367 65.047-67.922 19.211 26.555 41 49.32 65.055 67.922 47.648 36.852 101.781 55.539 160.891 55.539 79.078 0 151.82-31.664 204.828-89.156 52.383-56.82 81.227-134.445 81.227-218.586 0-86.602-32.266-165.875-101.555-249.477-61.984-74.797-151.063-150.711-254.211-238.617-35.25-30.031-75.195-64.078-116.656-100.336-10.945-9.578-25.008-14.859-39.578-14.859zM286.063 844.016c-62.133 0-119.211-24.797-160.734-69.828-42.141-45.711-65.352-108.898-65.352-177.93 0-72.836 27.070-137.977 87.766-211.211 58.664-70.789 145.922-145.148 246.953-231.25l0.188-0.156c35.32-30.102 75.359-64.227 117.031-100.664 41.922 36.508 82.023 70.688 117.414 100.836 101.023 86.102 188.273 160.445 246.938 231.234 60.688 73.234 87.758 138.375 87.758 211.211 0 69.031-23.211 132.219-65.352 177.93-41.516 45.031-98.602 69.828-160.727 69.828-45.516 0-87.305-14.469-124.203-43-32.883-25.438-55.789-57.594-69.219-80.094-6.906-11.57-19.063-18.477-32.523-18.477s-25.617 6.906-32.523 18.477c-13.422 22.5-36.328 54.656-69.219 80.094-36.898 28.531-78.688 43-124.195 43z" />
<glyph unicode="&#xe907;" glyph-name="send" d="M1015.214 951.21c-8.486 8.488-21.218 11.098-32.354 6.642l-964-385.595c-11.030-4.412-18.416-14.916-18.84-26.79-0.422-11.872 6.202-22.874 16.89-28.058l380.135-184.362 184.364-380.135c5.028-10.368 15.528-16.91 26.986-16.91 0.356 0 0.714 0.006 1.072 0.020 11.87 0.422 22.378 7.808 26.788 18.838l385.599 963.994c4.456 11.144 1.846 23.87-6.64 32.356zM104.188 541.765l765.251 306.097-456.057-456.053-309.193 149.956zM605.765 40.188l-149.958 309.197 456.059 456.053-306.101-765.251z" />
<glyph unicode="&#xe908;" glyph-name="mail" d="M349.090 354.91h-186.18c-13.964 0-23.272-9.31-23.272-23.272s9.31-23.272 23.272-23.272h186.182c13.964 0 23.272 9.31 23.272 23.272s-9.31 23.272-23.274 23.272zM279.272 471.272h-186.182c-13.964 0-23.272-9.31-23.272-23.272s9.31-23.272 23.272-23.272h186.182c13.964 0 23.272 9.31 23.272 23.272s-9.308 23.272-23.272 23.272zM209.454 587.636h-186.182c-13.962 0-23.272-9.308-23.272-23.272s9.31-23.272 23.272-23.272h186.182c13.964 0 23.272 9.31 23.272 23.272s-9.308 23.272-23.272 23.272zM926.254 648.146c-6.982 9.31-23.272 11.636-32.582 4.654l-246.69-188.51c-25.6-18.618-60.51-18.618-86.11 0l-246.69 188.51c-9.31 6.982-25.6 6.982-32.582-4.654-6.982-9.31-6.982-25.6 4.654-32.582l249.018-188.51c20.946-16.29 46.546-23.272 69.818-23.272s51.2 6.982 69.818 23.272l246.692 188.51c9.31 6.982 11.636 23.272 4.654 32.582zM954.182 750.546h-744.728c-13.964 0-23.272-9.31-23.272-23.272s9.308-23.274 23.272-23.274h744.728c13.964 0 23.272-9.31 23.272-23.272v-465.454c0-13.964-9.31-23.272-23.272-23.272h-744.728c-13.964 0-23.272-9.31-23.272-23.272 0-13.964 9.31-23.272 23.272-23.272h744.728c39.564 0 69.818 30.254 69.818 69.818v465.452c0 39.562-30.254 69.818-69.818 69.818zM923.928 278.11l-139.636 139.636c-9.31 9.31-23.272 9.31-32.582 0s-9.31-23.272 0-32.582l139.636-139.636c4.654-4.654 11.636-6.982 16.29-6.982s11.636 2.328 16.292 6.982c9.308 9.308 9.308 23.272 0 32.582z" />
<glyph unicode="&#xe909;" glyph-name="envelope" d="M938.666 832h-853.332c-47.064 0-85.334-38.27-85.334-85.334v-597.334c0-47.062 38.27-85.332 85.334-85.332h853.334c47.062 0 85.332 38.27 85.332 85.334v597.332c0 47.064-38.27 85.334-85.334 85.334zM85.334 789.334h853.334c3.144 0 5.914-1.146 8.864-1.794-73.878-67.614-318.846-291.718-404.572-368.956-6.708-6.042-17.52-13.25-30.958-13.25s-24.25 7.208-30.98 13.27c-85.718 77.226-330.7 301.342-404.566 368.932 2.956 0.648 5.732 1.798 8.878 1.798zM42.666 149.334v597.332c0 4.18 1.26 7.972 2.388 11.792 56.544-51.752 227.472-208.12 338.304-308.906-110.472-94.894-281.444-256.99-338.438-311.338-1.006 3.628-2.254 7.176-2.254 11.12zM938.666 106.666h-853.332c-3.408 0-6.438 1.188-9.62 1.948 58.894 56.144 230.954 219.172 339.484 312.018 14.148-12.834 27.072-24.536 37.26-33.716 17.584-15.876 38.166-24.25 59.542-24.25s41.958 8.376 59.52 24.23c10.192 9.184 23.126 20.896 37.282 33.736 108.536-92.836 280.572-255.852 339.484-312.018-3.182-0.76-6.208-1.948-9.62-1.948zM981.334 149.334c0-3.942-1.248-7.492-2.252-11.12-57.016 54.376-227.968 216.454-338.438 311.336 110.836 100.786 281.738 257.14 338.302 308.912 1.128-3.82 2.388-7.614 2.388-11.794v-597.334z" />
<glyph unicode="&#xe90a;" glyph-name="phone" d="M582.836 958c-11.047 0-20-8.953-20-20s8.953-20 20-20c221.203 0 401.164-179.961 401.164-401.164 0-11.039 8.953-20 20-20s20 8.961 20 20c0 243.258-197.906 441.164-441.164 441.164zM582.836 837.68c-11.047 0-20-8.961-20-20.008 0-11.039 8.953-20 20-20 154.852 0 280.836-125.977 280.836-280.836 0-11.039 8.953-20 20-20s20 8.961 20 20c0 176.914-143.922 320.844-320.836 320.844zM743.328 516.836c0-11.039 8.953-20 20-20s20 8.961 20 20c0 110.555-89.938 200.492-200.492 200.492-11.047 0-20-8.953-20-20s8.953-20 20-20c88.492 0 160.492-71.992 160.492-160.492zM562.836 577c0-11.039 8.953-20 20-20 22.148 0 40.164-18.016 40.164-40.164 0-11.039 8.953-20 20-20s20 8.961 20 20c0 44.211-35.961 80.164-80.164 80.164-11.047 0-20-8.953-20-20zM381.969 313.242c0-11.047-8.953-20-20-20s-20 8.953-20 20c0 11.047 8.953 20.008 20 20.008s20-8.961 20-20.008zM710.086 291.227c-23.391 23.398-61.461 23.398-84.852 0l-65.82-65.82c-12.438-12.438-35.797-14.664-51.008-4.875-23.008 14.828-45.438 31.102-66.648 48.375-8.57 6.969-21.164 5.68-28.141-2.891-6.969-8.57-5.68-21.164 2.891-28.133 22.359-18.203 45.984-35.352 70.234-50.977 30.953-19.938 75.297-15.445 100.961 10.219l65.82 65.82c7.805 7.797 20.484 7.789 28.281 0l155.563-155.586c7.797-7.797 7.797-20.484 0-28.281l-58.219-58.219c-47.063-47.063-119.664-59.891-180.656-31.922-305.375 139.969-464.563 375.055-544.32 547.617-27.484 59.438-14.266 131.070 32.906 178.234l57.305 57.297c7.805 7.813 20.445 7.836 28.273 0l155.586-155.586c7.797-7.797 7.797-20.477 0-28.273l-65.82-65.828c-25.664-25.664-30.148-70.008-10.211-100.961 11.305-17.539 23.445-34.82 36.094-51.375 6.711-8.773 19.266-10.453 28.039-3.742 8.773 6.703 10.453 19.258 3.75 28.031-12.008 15.711-23.531 32.109-34.258 48.758-9.797 15.203-7.563 38.57 4.875 51.008l65.82 65.82c23.445 23.445 23.453 61.398 0 84.852l-155.586 155.586c-23.453 23.453-61.398 23.453-84.859 0l-57.297-57.297c-58.977-58.977-75.422-148.719-40.938-223.305 115.422-249.703 309.453-450.539 563.969-567.203 75.836-34.773 166.57-19.039 225.609 40l58.227 58.219c23.391 23.398 23.391 61.461 0 84.852z" />
<glyph unicode="&#xe90b;" glyph-name="facebook" horiz-adv-x="1022" d="M580-62h-163.984c-27.391 0-49.672 22.281-49.672 49.672v369.875h-95.672c-27.391 0-49.672 22.289-49.672 49.672v158.492c0 27.391 22.281 49.672 49.672 49.672h95.672v79.367c0 78.695 24.711 145.648 71.453 193.609 46.953 48.18 112.57 73.641 189.758 73.641l125.063-0.203c27.344-0.047 49.586-22.328 49.586-49.672v-147.156c0-27.391-22.273-49.672-49.656-49.672l-84.203-0.031c-25.68 0-32.219-5.148-33.617-6.727-2.305-2.617-5.047-10.016-5.047-30.445v-62.703h116.539c8.773 0 17.273-2.164 24.578-6.242 15.758-8.805 25.555-25.453 25.555-43.445l-0.063-158.492c0-27.375-22.281-49.656-49.672-49.656h-116.938v-369.883c0-27.391-22.289-49.672-49.68-49.672zM426.375-1.969h143.266v386.391c0 18.289 14.883 33.164 33.164 33.164h133.453l0.055 137.766h-133.516c-18.281 0-33.156 14.875-33.156 33.164v89.578c0 23.453 2.383 50.125 20.086 70.172 21.391 24.234 55.102 27.031 78.602 27.031l73.844 0.031v126.453l-114.664 0.188c-124.047 0-201.133-79.406-201.133-207.219v-106.234c0-18.281-14.875-33.164-33.156-33.164h-112.188v-137.766h112.188c18.281 0 33.156-14.875 33.156-33.164zM752.5 901.766h0.008z" />
<glyph unicode="&#xe90c;" glyph-name="quote" d="M784 90c-132.336 0-240 107.664-240 240 0 270.296 109.36 449.594 114.014 457.094l11.734 18.906h175.168l-14.434-50.91c-14.106-49.76-36.482-139.666-36.482-169.090 0-7.18 0.214-12.43 0.502-16.236 60.942-2.622 117.834-27.922 160.75-71.626 44.332-45.144 68.748-104.856 68.748-168.138 0-132.336-107.664-240-240-240zM715.624 726c-25.952-50.332-91.624-197.36-91.624-396 0-88.224 71.776-160 160-160s160 71.776 160 160c0 86.526-70.352 158.284-156.826 159.958l-1.736 0.042c-35.090 0.192-52.198 18.208-60.376 33.338-9.182 16.986-11.062 37.334-11.062 62.662 0 31.918 14.388 94.832 25.882 140h-24.258zM784.128 570.084v0 0zM240 90c-132.336 0-240 107.664-240 240 0 270.296 109.36 449.594 114.014 457.094l11.734 18.906h175.168l-14.434-50.91c-14.106-49.76-36.482-139.666-36.482-169.090 0-7.18 0.214-12.43 0.502-16.236 60.942-2.622 117.834-27.922 160.75-71.626 44.332-45.144 68.748-104.856 68.748-168.138 0-132.336-107.664-240-240-240zM171.624 726c-25.952-50.332-91.624-197.36-91.624-396 0-88.224 71.776-160 160-160s160 71.776 160 160c0 86.526-70.352 158.284-156.826 159.958l-1.736 0.042c-35.090 0.192-52.198 18.208-60.376 33.338-9.182 16.986-11.062 37.334-11.062 62.662 0 31.918 14.388 94.832 25.882 140h-24.258zM240.128 570.084v0 0z" />
<glyph unicode="&#xe90d;" glyph-name="quote-1" d="M354.252 90h-175.166l14.432 50.91c14.106 49.76 36.482 139.666 36.482 169.090 0 7.182-0.214 12.432-0.502 16.238-60.942 2.622-117.834 27.922-160.75 71.624-44.332 45.144-68.748 104.856-68.748 168.138 0 132.336 107.664 240 240 240s240-107.664 240-240c0-270.296-109.36-449.594-114.014-457.094l-11.734-18.906zM284.118 170h24.26c25.95 50.332 91.622 197.36 91.622 396 0 88.224-71.776 160-160 160s-160-71.776-160-160c0-86.524 70.352-158.282 156.826-159.958l1.756-0.044c35.076-0.198 52.18-18.212 60.356-33.338 9.182-16.984 11.062-37.332 11.062-62.66 0-31.918-14.388-94.832-25.882-140zM239.872 325.916v0 0zM898.252 90h-175.166l14.432 50.91c14.106 49.76 36.482 139.666 36.482 169.090 0 7.182-0.214 12.432-0.502 16.238-60.942 2.622-117.834 27.922-160.75 71.624-44.332 45.144-68.748 104.856-68.748 168.138 0 132.336 107.664 240 240 240s240-107.664 240-240c0-270.296-109.36-449.594-114.014-457.094l-11.734-18.906zM828.118 170h24.26c25.95 50.332 91.622 197.36 91.622 396 0 88.224-71.776 160-160 160s-160-71.776-160-160c0-86.524 70.352-158.282 156.826-159.958l1.756-0.044c35.076-0.198 52.18-18.212 60.356-33.338 9.182-16.984 11.062-37.332 11.062-62.66 0-31.918-14.388-94.832-25.882-140zM783.872 325.916v0 0z" />
<glyph unicode="&#xe90e;" glyph-name="clock" d="M913.666 895.734h-50.332v34.266c0 16.568-13.432 30-30 30s-30-13.432-30-30v-34.266h-68.534v34.266c0 16.568-13.432 30-30 30s-30-13.432-30-30v-34.266h-68.534v34.266c0 16.568-13.432 30-30 30s-30-13.432-30-30v-34.266h-68.536v34.266c0 16.568-13.432 30-30 30s-30-13.432-30-30v-34.266h-68.53v34.266c0 16.568-13.432 30-30 30s-30-13.432-30-30v-34.266h-68.534v34.266c0 16.568-13.432 30-30 30s-30-13.432-30-30v-34.266h-50.332c-60.838 0-110.334-49.496-110.334-110.334v-739.066c0-60.838 49.496-110.334 110.334-110.334h690.866c122.852 0 222.8 99.948 222.8 222.8v626.6c0 60.838-49.496 110.334-110.334 110.334zM110.334 835.734h50.332v-34.268c0-16.568 13.432-30 30-30s30 13.432 30 30v34.268h68.534v-34.268c0-16.568 13.432-30 30-30s30 13.432 30 30v34.268h68.534v-34.268c0-16.568 13.432-30 30-30s30 13.432 30 30v34.268h68.536v-34.268c0-16.568 13.432-30 30-30s30 13.432 30 30v34.268h68.53v-34.268c0-16.568 13.432-30 30-30s30 13.432 30 30v34.268h68.534v-34.268c0-16.568 13.432-30 30-30s30 13.432 30 30v34.268h50.332c27.754 0 50.334-22.58 50.334-50.334v-82.466h-904v82.466c0 27.754 22.58 50.334 50.334 50.334zM801.2-4c-89.768 0-162.798 73.032-162.798 162.8s73.032 162.798 162.798 162.798c89.768 0 162.8-73.032 162.8-162.798 0-89.768-73.032-162.8-162.8-162.8zM801.2 381.6c-122.852 0-222.8-99.948-222.8-222.8 0-64.186 27.292-122.108 70.868-162.8h-538.934c-27.754 0-50.334 22.58-50.334 50.334v596.6h904v-332.204c-40.694 43.576-98.616 70.87-162.8 70.87zM319.2 542.26c-7.9 0-15.64-3.2-21.22-8.78s-8.78-13.32-8.78-21.22c0-7.878 3.2-15.62 8.78-21.2 5.6-5.58 13.32-8.78 21.22-8.78s15.62 3.2 21.22 8.78c5.58 5.58 8.78 13.32 8.78 21.2 0 7.9-3.2 15.64-8.78 21.22s-13.32 8.78-21.22 8.78zM447.74 542.26c-7.9 0-15.64-3.2-21.22-8.78s-8.78-13.32-8.78-21.22c0-7.878 3.2-15.62 8.78-21.2s13.32-8.78 21.22-8.78c7.882 0 15.62 3.2 21.2 8.78s8.8 13.32 8.8 21.2c0 7.9-3.22 15.64-8.8 21.22s-13.32 8.78-21.2 8.78zM576.26 542.26c-7.9 0-15.62-3.2-21.2-8.78s-8.78-13.32-8.78-21.22c0-7.898 3.2-15.62 8.78-21.2s13.32-8.78 21.2-8.78c7.9 0 15.64 3.2 21.22 8.78s8.78 13.32 8.78 21.2c0 7.9-3.2 15.64-8.78 21.22s-13.32 8.78-21.22 8.78zM704.8 542.26c-7.9 0-15.64-3.2-21.22-8.78s-8.78-13.32-8.78-21.22c0-7.878 3.2-15.62 8.78-21.2 5.6-5.58 13.32-8.78 21.22-8.78s15.64 3.2 21.22 8.78 8.78 13.32 8.78 21.2c0 7.9-3.2 15.64-8.78 21.22s-13.32 8.78-21.22 8.78zM833.34 542.26c-7.9 0-15.64-3.2-21.22-8.78s-8.78-13.32-8.78-21.22c0-7.878 3.2-15.62 8.78-21.2 5.578-5.58 13.32-8.78 21.22-8.78s15.62 3.2 21.2 8.78 8.8 13.32 8.8 21.2c0 7.9-3.22 15.64-8.8 21.22s-13.3 8.78-21.2 8.78zM190.66 413.74c-7.9 0-15.62-3.2-21.2-8.78-5.6-5.6-8.8-13.34-8.8-21.22 0-7.9 3.2-15.64 8.8-21.22 5.58-5.58 13.3-8.78 21.2-8.78s15.64 3.2 21.22 8.78 8.78 13.32 8.78 21.22c0 7.88-3.2 15.622-8.78 21.22-5.58 5.582-13.32 8.78-21.22 8.78zM319.2 413.74c-7.9 0-15.64-3.2-21.22-8.78-5.58-5.6-8.78-13.34-8.78-21.22 0-7.9 3.2-15.64 8.78-21.22 5.6-5.58 13.32-8.78 21.22-8.78s15.62 3.2 21.22 8.78c5.58 5.58 8.78 13.32 8.78 21.22s-3.2 15.622-8.78 21.22c-5.6 5.582-13.32 8.78-21.22 8.78zM447.74 413.74c-7.9 0-15.64-3.2-21.22-8.78-5.58-5.6-8.78-13.32-8.78-21.22s3.2-15.64 8.78-21.22 13.32-8.78 21.22-8.78c7.882 0 15.62 3.2 21.2 8.78s8.8 13.32 8.8 21.22c0 7.88-3.22 15.622-8.8 21.22-5.58 5.582-13.3 8.78-21.2 8.78zM576.26 413.74c-7.9 0-15.62-3.2-21.2-8.78-5.58-5.6-8.8-13.34-8.8-21.22 0-7.9 3.22-15.64 8.8-21.22s13.3-8.78 21.2-8.78 15.64 3.2 21.22 8.78 8.78 13.32 8.78 21.22c0 7.88-3.2 15.622-8.78 21.22-5.58 5.582-13.32 8.78-21.22 8.78zM190.66 285.202c-7.88 0-15.62-3.202-21.2-8.782s-8.8-13.32-8.8-21.218c0-7.9 3.22-15.622 8.8-21.22 5.58-5.58 13.32-8.78 21.2-8.78 7.9 0 15.64 3.2 21.22 8.78 5.58 5.6 8.78 13.32 8.78 21.22 0 7.898-3.2 15.62-8.78 21.218-5.58 5.58-13.32 8.782-21.22 8.782zM319.2 285.202c-7.9 0-15.64-3.202-21.22-8.782s-8.78-13.32-8.78-21.218c0-7.9 3.2-15.622 8.78-21.22 5.6-5.58 13.32-8.78 21.22-8.78s15.62 3.2 21.22 8.78c5.58 5.6 8.78 13.32 8.78 21.22 0 7.898-3.2 15.638-8.78 21.218-5.6 5.58-13.32 8.782-21.22 8.782zM447.74 285.202c-7.9 0-15.64-3.202-21.22-8.782s-8.78-13.32-8.78-21.218c0-7.9 3.2-15.622 8.78-21.22 5.58-5.58 13.32-8.78 21.22-8.78 7.882 0 15.62 3.2 21.2 8.78 5.6 5.6 8.8 13.32 8.8 21.22 0 7.898-3.2 15.638-8.8 21.218-5.58 5.58-13.3 8.782-21.2 8.782zM190.66 156.66c-7.9 0-15.62-3.2-21.2-8.78-5.6-5.58-8.8-13.32-8.8-21.202 0-7.898 3.2-15.638 8.8-21.218 5.58-5.58 13.32-8.8 21.2-8.8 7.9 0 15.62 3.22 21.22 8.8 5.58 5.58 8.78 13.32 8.78 21.218 0 7.88-3.2 15.622-8.78 21.202s-13.32 8.78-21.22 8.78zM319.2 156.66c-7.9 0-15.62-3.2-21.22-8.78-5.58-5.58-8.78-13.32-8.78-21.202 0-7.898 3.2-15.638 8.78-21.218 5.6-5.58 13.32-8.8 21.22-8.8s15.62 3.22 21.22 8.8c5.58 5.58 8.78 13.32 8.78 21.218 0 7.88-3.2 15.622-8.78 21.202-5.6 5.58-13.32 8.78-21.22 8.78zM447.74 156.66c-7.9 0-15.64-3.2-21.22-8.78s-8.78-13.32-8.78-21.202c0-7.898 3.2-15.638 8.78-21.218s13.32-8.8 21.22-8.8c7.882 0 15.62 3.22 21.2 8.8s8.8 13.32 8.8 21.218c0 7.88-3.22 15.622-8.8 21.202s-13.32 8.78-21.2 8.78zM865.466 188.8h-34.266v34.266c0 16.568-13.432 30-30 30s-30-13.432-30-30v-64.266c0-16.568 13.432-30 30-30h64.268c16.568 0 30 13.432 30 30-0.002 16.57-13.432 30-30.002 30z" />
<glyph unicode="&#xe90f;" d="M426.667 192c75.733 0.017 149.282 25.37 208.939 72.021l187.563-187.563 60.331 60.331-187.563 187.563c46.677 59.661 72.047 133.231 72.064 208.981 0 188.203-153.131 341.333-341.333 341.333s-341.333-153.131-341.333-341.333c0-188.203 153.131-341.333 341.333-341.333zM426.667 789.333c141.184 0 256-114.816 256-256s-114.816-256-256-256c-141.184 0-256 114.816-256 256s114.816 256 256 256z" />
<glyph unicode="&#xe910;" d="M486.912 593.666c16.171-16.213 25.088-37.632 25.088-60.331h85.333c0.038 22.424-4.369 44.634-12.966 65.344s-21.214 39.512-37.124 55.317c-64.597 64.512-176.597 64.512-241.152 0l60.245-60.416c32.427 32.341 88.32 32.256 120.576 0.085z" />
<glyph unicode="&#xe911;" glyph-name="facebook-share" d="M547.801 82.412v333.044h112.357l16.701 130.398h-129.058v83.058c0 37.628 10.484 63.39 64.488 63.39h68.432v116.257c-33.295 3.568-66.765 5.291-100.25 5.16-99.31 0-167.496-60.627-167.496-171.926v-95.695h-111.624v-130.398h111.868v-333.288h134.581z" />
<glyph unicode="&#xe912;" glyph-name="twitter-share" d="M933.854 691.807l-91.429-15.238 60.952 76.19-106.667-30.476c-137.143 152.381-350.474-15.238-289.524-152.381-243.808 0-365.712 182.857-365.712 182.857s-91.429-137.143 60.952-243.81l-91.429 30.476c0-91.431 60.952-152.383 167.619-182.86h-106.667c60.952-121.905 167.619-121.905 167.619-121.905s-91.429-76.19-259.048-76.19c502.855-243.81 807.617 213.333 761.903 457.145l91.429 76.19z" />
<glyph unicode="&#xe913;" glyph-name="pinterest-share" d="M987.901 448c0-267.954-217.099-485.053-485.052-485.053-50.070 0-98.184 7.626-143.56 21.709 19.754 32.272 49.287 85.084 60.24 127.132 5.868 22.69 30.12 115.394 30.12 115.394 15.842-30.116 62.001-55.743 111.092-55.743 146.297 0 251.721 134.564 251.721 301.792 0 160.184-130.846 280.079-299.052 280.079-209.276 0-320.565-140.431-320.565-293.574 0-71.192 37.944-159.795 98.379-187.96 9.193-4.301 14.082-2.344 16.234 6.457 1.565 6.651 9.779 39.704 13.496 54.962 1.173 4.888 0.586 9.189-3.325 13.883-19.754 24.447-35.792 69.043-35.792 110.702 0 106.985 80.973 210.45 219.056 210.45 119.111 0 202.626-81.168 202.626-197.346 0-131.239-66.301-222.186-152.554-222.186-47.53 0-83.322 39.316-71.782 87.622 13.691 57.7 40.095 119.895 40.095 161.555 0 37.161-19.95 68.26-61.414 68.26-48.701 0-87.818-50.266-87.818-117.743 0-43.029 14.473-71.974 14.473-71.974s-47.918-203.021-56.72-240.963c-9.779-41.855-5.868-100.923-1.76-139.259-180.33 70.607-308.243 246.245-308.243 451.805 0 267.952 217.1 485.053 485.053 485.053s485.052-217.1 485.052-485.053z" />
</font>
</defs>
</svg>
